<svg width="24" height="25" viewBox="0 0 24 25" fill="none" xmlns="http://www.w3.org/2000/svg">
<path d="M12 1C18.0358 1 23 5.57187 23 11.2842C23 14.5988 21.2916 17.5224 18.7139 19.3923C18.7176 19.5031 18.7139 19.6744 18.8488 20.2144C19.0155 20.8813 19.3452 21.8263 20.0327 22.8741L20.5272 23.6156L19.673 23.6317C16.7113 23.6458 14.9954 21.5523 14.7275 21.2138C13.8527 21.4233 12.9423 21.5684 12 21.5684C5.96611 21.5684 1 16.9965 1 11.2842C1 5.57187 5.96611 1 12 1ZM12 1.96717C6.38198 1.96717 1.89918 6.17232 1.89918 11.2842C1.89918 16.3961 6.38198 20.6012 12 20.6012C12.961 20.6012 13.8939 20.4763 14.7725 20.2466L15.0422 20.1821L15.2221 20.4239C15.2221 20.4239 16.6083 22.1044 18.8188 22.5033C18.4198 21.7336 18.1163 21.0183 17.9796 20.4723C17.7885 19.7086 17.7847 19.1827 17.7847 19.1827V18.9248L17.9946 18.7797C20.501 17.0711 22.1008 14.3489 22.1008 11.2842C22.1008 6.17232 17.6199 1.96717 12 1.96717Z" stroke="#595959" stroke-width="2"/>
</svg>
