<svg width="15" height="17" viewBox="0 0 15 17" fill="none" xmlns="http://www.w3.org/2000/svg">
<g id="Group">
<path id="Vector" d="M7.65858 1H7.34142C6.95908 1 6.59239 1.15189 6.32204 1.42224C6.05168 1.6926 5.89979 2.05928 5.89979 2.44163V2.57137C5.89953 2.82418 5.8328 3.07248 5.70628 3.29135C5.57977 3.51022 5.39792 3.69198 5.17898 3.81838L4.86903 3.99859C4.64987 4.12512 4.40127 4.19173 4.14821 4.19173C3.89516 4.19173 3.64655 4.12512 3.4274 3.99859L3.31928 3.94092C2.98847 3.7501 2.59546 3.69833 2.22652 3.79698C1.85759 3.89563 1.54287 4.13665 1.35145 4.46712L1.19288 4.74103C1.00205 5.07183 0.950281 5.46484 1.04893 5.83378C1.14759 6.20272 1.3886 6.51744 1.71907 6.70885L1.82719 6.78093C2.04508 6.90672 2.22625 7.08734 2.3527 7.30484C2.47916 7.52234 2.54649 7.76915 2.54801 8.02073V8.38835C2.54901 8.64237 2.48288 8.89216 2.3563 9.11241C2.22972 9.33266 2.04719 9.51555 1.82719 9.64256L1.71907 9.70744C1.3886 9.89885 1.14759 10.2136 1.04893 10.5825C0.950281 10.9514 1.00205 11.3445 1.19288 11.6753L1.35145 11.9492C1.54287 12.2796 1.85759 12.5206 2.22652 12.6193C2.59546 12.718 2.98847 12.6662 3.31928 12.4754L3.4274 12.4177C3.64655 12.2912 3.89516 12.2246 4.14821 12.2246C4.40127 12.2246 4.64987 12.2912 4.86903 12.4177L5.17898 12.5979C5.39792 12.7243 5.57977 12.9061 5.70628 13.1249C5.8328 13.3438 5.89953 13.5921 5.89979 13.8449V13.9747C5.89979 14.357 6.05168 14.7237 6.32204 14.994C6.59239 15.2644 6.95908 15.4163 7.34142 15.4163H7.65858C8.04092 15.4163 8.40761 15.2644 8.67796 14.994C8.94832 14.7237 9.10021 14.357 9.10021 13.9747V13.8449C9.10047 13.5921 9.1672 13.3438 9.29372 13.1249C9.42023 12.9061 9.60208 12.7243 9.82102 12.5979L10.131 12.4177C10.3501 12.2912 10.5987 12.2246 10.8518 12.2246C11.1048 12.2246 11.3534 12.2912 11.5726 12.4177L11.6807 12.4754C12.0115 12.6662 12.4045 12.718 12.7735 12.6193C13.1424 12.5206 13.4571 12.2796 13.6485 11.9492L13.8071 11.668C13.998 11.3372 14.0497 10.9442 13.9511 10.5753C13.8524 10.2064 13.6114 9.89164 13.2809 9.70023L13.1728 9.64256C12.9528 9.51555 12.7703 9.33266 12.6437 9.11241C12.5171 8.89216 12.451 8.64237 12.452 8.38835V8.02794C12.451 7.77391 12.5171 7.52412 12.6437 7.30387C12.7703 7.08363 12.9528 6.90074 13.1728 6.77372L13.2809 6.70885C13.6114 6.51744 13.8524 6.20272 13.9511 5.83378C14.0497 5.46484 13.998 5.07183 13.8071 4.74103L13.6485 4.46712C13.4571 4.13665 13.1424 3.89563 12.7735 3.79698C12.4045 3.69833 12.0115 3.7501 11.6807 3.94092L11.5726 3.99859C11.3534 4.12512 11.1048 4.19173 10.8518 4.19173C10.5987 4.19173 10.3501 4.12512 10.131 3.99859L9.82102 3.81838C9.60208 3.69198 9.42023 3.51022 9.29372 3.29135C9.1672 3.07248 9.10047 2.82418 9.10021 2.57137V2.44163C9.10021 2.05928 8.94832 1.6926 8.67796 1.42224C8.40761 1.15189 8.04092 1 7.65858 1Z" stroke="black" stroke-width="1.3" stroke-linecap="round" stroke-linejoin="round"/>
<path id="Vector_2" d="M7.49997 10.3705C8.69425 10.3705 9.66241 9.40238 9.66241 8.2081C9.66241 7.01381 8.69425 6.04565 7.49997 6.04565C6.30568 6.04565 5.33752 7.01381 5.33752 8.2081C5.33752 9.40238 6.30568 10.3705 7.49997 10.3705Z" stroke="black" stroke-width="1.11" stroke-linecap="round" stroke-linejoin="round"/>
</g>
</svg>
